<svg viewBox="0 0 24 24" fill="none" xmlns="http://www.w3.org/2000/svg" id="Exit--Streamline-Solar" height="24" width="24">
  <desc>
    Exit Streamline Icon: https://streamlinehq.com
  </desc>
  <path fill-rule="evenodd" clip-rule="evenodd" d="M9.70725 2.4087C9 3.03569 9 4.18259 9 6.4764v11.0472c0 2.2938 0 3.4407 0.70725 4.0677 0.70725 0.627 1.78825 0.4384 3.95035 0.0613l2.3288 -0.4061c2.3945 -0.4177 3.5917 -0.6265 4.3027 -1.5048C21 18.8635 21 17.5933 21 15.0529V8.94711c0 -2.54039 0 -3.81059 -0.7109 -4.68885 -0.711 -0.87827 -1.9082 -1.08708 -4.3027 -1.50472l-2.3288 -0.40618c-2.1621 -0.3771 -3.2431 -0.56565 -3.95035 0.06134ZM12 10.1686c0.4142 0 0.75 0.3514 0.75 0.7849v2.093c0 0.4335 -0.3358 0.7849 -0.75 0.7849s-0.75 -0.3514 -0.75 -0.7849v-2.093c0 -0.4335 0.3358 -0.7849 0.75 -0.7849Z" fill="#000000" stroke-width="1"></path>
  <path d="M7.54717 4.5c-2.05828 0.003 -3.13118 0.04826 -3.81494 0.73202C3 5.96425 3 7.14276 3 9.49979v5.00001c0 2.357 0 3.5355 0.73223 4.2678 0.68376 0.6837 1.75666 0.729 3.81494 0.732 -0.04732 -0.6233 -0.04725 -1.3439 -0.04716 -2.1228V6.6227c-0.00009 -0.77882 -0.00016 -1.4994 0.04716 -2.1227Z" fill="#000000" stroke-width="1"></path>
</svg>